<svg width="60" height="60" viewBox="0 0 60 60" fill="none" xmlns="http://www.w3.org/2000/svg">
<path fill-rule="evenodd" clip-rule="evenodd" d="M25.8967 41.4545C36.4631 41.4545 42.2415 32.6066 42.2415 24.9343C42.2415 24.6829 42.2364 24.4327 42.225 24.1837C43.3466 23.3642 44.3217 22.3417 45.0909 21.1774C44.0615 21.6396 42.9538 21.951 41.7918 22.0915C42.9778 21.3728 43.8885 20.2353 44.3179 18.8796C43.2077 19.5447 41.9787 20.0285 40.6702 20.289C39.6219 19.1604 38.1291 18.4545 36.477 18.4545C33.3043 18.4545 30.7315 21.0549 30.7315 24.2603C30.7315 24.7161 30.782 25.1591 30.8805 25.5842C26.1063 25.3416 21.8726 23.0311 19.0397 19.5178C18.5459 20.3757 18.2616 21.3728 18.2616 22.4362C18.2616 24.4506 19.2759 26.2289 20.818 27.2692C19.8758 27.2399 18.9904 26.9782 18.2161 26.5429C18.2149 26.5672 18.2149 26.5914 18.2149 26.6168C18.2149 29.4292 20.1954 31.7768 22.8237 32.3092C22.3412 32.4419 21.8335 32.5134 21.3094 32.5134C20.9393 32.5134 20.5793 32.4764 20.2295 32.4087C20.9607 34.7155 23.0814 36.3942 25.596 36.4415C23.6296 37.9988 21.1528 38.927 18.4612 38.927C17.9977 38.927 17.5404 38.9001 17.0909 38.8465C19.6333 40.4933 22.6519 41.4545 25.8967 41.4545Z" fill="white"/>
</svg>
