<svg width="60" height="60" viewBox="0 0 60 60" fill="none" xmlns="http://www.w3.org/2000/svg">
<path fill-rule="evenodd" clip-rule="evenodd" d="M27.6523 41.7273H33.036V33.1358C33.036 30.8707 33.4664 28.6771 36.27 28.6771C39.033 28.6771 39.0698 31.2675 39.0698 33.2814V41.7273H44.4545V32.201C44.4545 27.5255 43.4474 23.9283 37.9908 23.9283C35.3693 23.9283 33.6117 25.3678 32.8924 26.7332H32.82V24.3602H27.6523V41.7273ZM21.5793 15.7273C23.3019 15.7273 24.7021 17.1296 24.7021 18.8559C24.7021 20.5835 23.3019 21.9861 21.5793 21.9861C19.8522 21.9861 18.4545 20.5835 18.4545 18.8559C18.4545 17.1296 19.8522 15.7273 21.5793 15.7273ZM18.8837 41.7273H24.2722V24.3602H18.8837V41.7273Z" fill="white"/>
</svg>
